<svg aria-hidden="true" style="position: absolute; width: 0; height: 0; overflow: hidden;" version="1.1" xmlns="http://www.w3.org/2000/svg" xmlns:xlink="http://www.w3.org/1999/xlink">
<defs>
<symbol id="icon-icon1" viewBox="0 0 64 64">
<path fill="#2e2f42" style="fill: var(--color1, #2e2f42)" d="M61.5 44.2l-16.8-17 1.8-9.2 1.6 0.2c0.009 0 0.019 0 0.030 0 2.375 0 4.3-1.925 4.3-4.3s-1.925-4.3-4.3-4.3c-2.375 0-4.3 1.925-4.3 4.3 0 0.539 0.099 1.054 0.28 1.529l-0.010-0.030-10 1.2-16.1-16.3c-0.178-0.182-0.425-0.296-0.699-0.3h-0.001c-0.025-0.002-0.053-0.003-0.082-0.003-0.281 0-0.536 0.116-0.717 0.303l-3 3c-0.208 0.184-0.339 0.452-0.339 0.75s0.13 0.566 0.338 0.749l0.001 0.001 1.5 1.7c-2.243 4.094-3.563 8.97-3.563 14.154 0 8.358 3.429 15.915 8.958 21.341l0.005 0.005-0.1 1v12.5h-12.8c-3 0-5.4 2.4-5.4 5.3v2.1c0 0.6 0.5 1.1 1.1 1.1h49c0.7 0 1.1-0.5 1.1-1v-2.2c0-3-2.3-5.3-5.3-5.3h-12.8v-5.5c1.791 0.38 3.848 0.597 5.956 0.597 5.218 0 10.126-1.332 14.4-3.676l-0.156 0.078 1.6 1.7c0.2 0.2 0.5 0.3 0.8 0.3s0.5 0 0.7-0.3l3-3c0.5-0.4 0.5-1 0-1.5zM46.5 12.5c0.378-0.368 0.895-0.596 1.465-0.596 1.16 0 2.1 0.94 2.1 2.1 0 1.112-0.865 2.023-1.959 2.095l-0.006 0c-0.009 0-0.020 0-0.031 0-1.16 0-2.1-0.94-2.1-2.1 0-0.588 0.241-1.119 0.63-1.5l0-0zM44 19.5l-1 5.9-2.5-2.4 3.5-3.5zM42.8 17.7l-3.8 3.8-3-3 6.8-0.8zM48 57.6c1.8 0 3.2 1.4 3.2 3.2v1h-47v-1c0-1.8 1.5-3.2 3.3-3.2h40.5zM33 53.3v2.2h-10.5v-2.2h10.7zM22.4 51.2v-8.1c0-2.6 2.4-4.7 5.3-4.7 3 0 5.4 2.1 5.4 4.7v8.1h-10.7zM35.2 47.8v-4.7c0-3.8-3.3-6.8-7.5-6.8-0.030-0-0.065-0.001-0.1-0.001-2.675 0-5.027 1.382-6.382 3.471l-0.018 0.030c-4.726-4.959-7.634-11.688-7.634-19.096 0-4.601 1.122-8.94 3.107-12.758l-0.073 0.154 37.2 37.4c-5.7 2.9-12.3 3.7-18.6 2.3zM57.8 46.4l-1.5-1.4-39.1-39.4-1.5-1.6 1.5-1.5 15.9 16 26.2 26.3-1.5 1.5z"></path>
<path fill="#4d5ae5" style="fill: var(--color2, #4d5ae5)" d="M27.8 40.5c-1.767 0-3.2 1.433-3.2 3.2s1.433 3.2 3.2 3.2v0c1.767 0 3.2-1.433 3.2-3.2s-1.433-3.2-3.2-3.2v0zM28.5 44.5c-0.157 0.107-0.35 0.17-0.558 0.17-0.552 0-1-0.448-1-1 0-0.466 0.319-0.858 0.751-0.969l0.007-0.002c0.073-0.019 0.156-0.030 0.242-0.030 0.552 0 1 0.448 1 1 0 0.344-0.174 0.648-0.438 0.827l-0.003 0.002z"></path>
</symbol>
<symbol id="icon-icon2" viewBox="0 0 64 64">
<path fill="#2e2f42" style="fill: var(--color1, #2e2f42)" d="M62.6 30.6c0-0.014 0-0.030 0-0.047 0-16.9-13.7-30.6-30.6-30.6s-30.6 13.7-30.6 30.6c0 13.688 8.987 25.277 21.383 29.188l0.217 0.059c0.3 0 0.5 0 0.7-0.2 0.3-0.1 0.5-0.4 0.6-0.7l7.7-24.5c2.097-0.002 3.797-1.702 3.797-3.8 0-2.099-1.701-3.8-3.8-3.8-0.619 0-1.203 0.148-1.719 0.41l0.022-0.010-10.2-10.3c-0.201-0.133-0.448-0.213-0.713-0.213-0.718 0-1.3 0.582-1.3 1.3 0 0.265 0.079 0.512 0.216 0.718l-0.003-0.005 10.2 10.3c-0.225 0.471-0.357 1.024-0.357 1.608 0 1.211 0.567 2.29 1.449 2.986l0.008 0.006-7.4 23.3c-10.751-4.073-18.255-14.285-18.255-26.25 0-15.464 12.536-28 28-28s28 12.536 28 28c0 11.315-6.711 21.062-16.37 25.478l-0.175 0.072-0.8-3.7c-0.139-0.579-0.653-1.003-1.266-1.003-0.319 0-0.61 0.115-0.836 0.305l0.002-0.002-7.7 6.8c-0.259 0.238-0.42 0.579-0.42 0.957 0 0.582 0.383 1.075 0.911 1.241l0.009 0.002 9.7 3.2c0.092 0.023 0.198 0.037 0.307 0.037 0.718 0 1.3-0.582 1.3-1.3 0-0.048-0.003-0.096-0.008-0.143l0.001 0.006-0.8-3.7c11.078-4.736 18.7-15.54 18.7-28.125 0-0.026-0-0.053-0-0.079v0.004zM32 29.3c0.718 0 1.3 0.582 1.3 1.3s-0.582 1.3-1.3 1.3v0c-0.718 0-1.3-0.582-1.3-1.3s0.582-1.3 1.3-1.3v0zM36.2 59.1l4.4-4 1.2 5.7-5.6-1.7z"></path>
<path fill="#4d5ae5" style="fill: var(--color2, #4d5ae5)" d="M30.7 6.4v2.5c0 0.718 0.582 1.3 1.3 1.3s1.3-0.582 1.3-1.3v-2.5c0-0.718-0.582-1.3-1.3-1.3s-1.3 0.582-1.3 1.3v0zM7.8 29.3c-0.718 0-1.3 0.582-1.3 1.3s0.582 1.3 1.3 1.3v0h2.5c0.718 0 1.3-0.582 1.3-1.3s-0.582-1.3-1.3-1.3v0h-2.5zM56.2 31.9c0.718 0 1.3-0.582 1.3-1.3s-0.582-1.3-1.3-1.3v0h-2.5c-0.718 0-1.3 0.582-1.3 1.3s0.582 1.3 1.3 1.3v0h2.5z"></path>
</symbol>
<symbol id="icon-icon3" viewBox="0 0 64 64">
<path fill="#4d5ae5" style="fill: var(--color2, #4d5ae5)" d="M29.9 30h2v9.5h-2v-9.5zM38.4 34.2h2.1v5.3h-2.1v-5.3zM21.3 37.4h2.2v2.1h-2.2v-2.1zM15 36.3h2v3.2h-2v-3.2z"></path>
<path fill="#2e2f42" style="fill: var(--color1, #2e2f42)" d="M3.2 56.6h51.2c1.7 0 3.2-1.5 3.2-3.2v-4.4c0-1.7-1.5-3.2-3.2-3.2h-1v-26.5l6-5.7c0.405 0.199 0.881 0.315 1.385 0.315 1.767 0 3.2-1.433 3.2-3.2s-1.433-3.2-3.2-3.2c-1.767 0-3.2 1.433-3.2 3.2 0 0.504 0.116 0.98 0.324 1.404l-0.008-0.019-4.6 4.3v-2.5c0-1.7-1.4-3.2-3.2-3.2h-42.6c-0 0-0.001 0-0.002 0-1.767 0-3.2 1.433-3.2 3.2 0 0.035 0.001 0.070 0.002 0.105l-0-0.005v32h-1.1c-0 0-0.001 0-0.002 0-1.732 0-3.143 1.376-3.198 3.095l-0 0.005v4.3c0 1.7 1.4 3.2 3.2 3.2zM60.8 9.6c0.608 0 1.1 0.492 1.1 1.1s-0.492 1.1-1.1 1.1v0c-0.58 0-1.050-0.47-1.050-1.050s0.47-1.050 1.050-1.050v0zM6.4 14c0-0.6 0.5-1 1-1h42.7c0.6 0 1 0.4 1 1v4.5l-2 2v-4.3c0-0.6-0.5-1.1-1.1-1.1h-38.4c-0.552 0-1 0.448-1 1v0 26.7c0 0.6 0.4 1 1 1h38.4c0.6 0 1-0.4 1-1v-19.4l2.2-2v24.5h-44.8v-31.9zM16 27.8c-0.007-0-0.016-0-0.025-0-1.767 0-3.2 1.433-3.2 3.2s1.433 3.2 3.2 3.2c0.865 0 1.65-0.343 2.226-0.901l-0.001 0.001 3.7 1.9c0.4 0.2 1 0 1.3-0.3l7.8-8.9 7.7 5.8c0.4 0.4 1 0.3 1.4 0l6.7-6.4v16.3h-36.1v-24.7h36.2v5.4l-7.5 7.1-7.8-5.9c-0.176-0.156-0.408-0.252-0.664-0.252-0.348 0-0.655 0.178-0.834 0.448l-0.002 0.004-8 9-3-1.5v-0.3c0-1.8-1.3-3.2-3.1-3.2zM17 31c0 0.552-0.448 1-1 1s-1-0.448-1-1v0c0-0.552 0.448-1 1-1s1 0.448 1 1v0zM23.5 48h10.5v1.1c0 0.6-0.5 1-1 1h-8.6c-0.552 0-1-0.448-1-1v0-1zM2 49.2c0-0.6 0.5-1 1.1-1h18.1v1c0 1.8 1.5 3.2 3.2 3.2h8.6c1.8 0 3.2-1.4 3.2-3.2v-1h18.2c0.6 0 1 0.4 1 1v4.3c0 0.6-0.4 1-1 1h-51.2c-0.552 0-1-0.448-1-1v0-4.5z"></path>
</symbol>
<symbol id="icon-icon4" viewBox="0 0 64 64">
<path fill="#4d5ae5" style="fill: var(--color2, #4d5ae5)" d="M64 9c-0.131-0.41-0.509-0.701-0.954-0.701-0.016 0-0.032 0-0.048 0.001l0.002-0-3.7-0.5-1.7-3.5c-0.4-0.7-1.6-0.7-2 0l-1.6 3.5-3.8 0.5c-0.552 0-1 0.448-1 1 0 0.326 0.156 0.616 0.398 0.798l0.002 0.002 2.8 2.7-0.7 3.8c-0.125 0.165-0.2 0.374-0.2 0.6 0 0.552 0.448 1 1 1 0.326 0 0.616-0.156 0.798-0.398l0.002-0.003 3.4-1.8 3.4 1.8c0.184 0.244 0.474 0.4 0.8 0.4 0.552 0 1-0.448 1-1 0-0.226-0.075-0.435-0.202-0.602l0.002 0.003-0.7-3.8 2.8-2.7c0.3-0.2 0.4-0.7 0.2-1zM59 11.7c-0.205 0.184-0.333 0.45-0.333 0.745 0 0.091 0.012 0.178 0.035 0.262l-0.002-0.007 0.4 2.2-2-1c-0.143-0.084-0.316-0.134-0.5-0.134s-0.357 0.050-0.505 0.136l0.005-0.003-2 1 0.4-2.3c0-0.3 0-0.7-0.3-0.9l-1.6-1.6 2.2-0.3c0.3 0 0.6-0.3 0.8-0.6l1-2 1 2c0.2 0.3 0.5 0.5 0.8 0.6l2.2 0.3-1.6 1.6zM52.3 41h-2.3v2.2h2.2v-2.2zM52.3 45.3h-2.3v2.1h2.2v-2zM54.4 43.2h-2.1v2.1h2.1v-2.1z"></path>
<path fill="#4d5ae5" style="fill: var(--color2, #4d5ae5)" d="M50.1 43.2h-2.1v2.1h2.1v-2.1zM44.8 52.8h-2.1v2.1h2.1v-2.1zM44.8 57h-2.1v2.2h2.1v-2.2zM47 55h-2.2v2h2.1v-2zM42.7 55h-2.2v2h2.2v-2zM32 48.5h-2.1v2.1h2.1v-2zM32 52.8h-2.1v2.1h2.1v-2.1zM34.1 50.6h-2.1v2.2h2.1v-2.2z"></path>
<path fill="#4d5ae5" style="fill: var(--color2, #4d5ae5)" d="M29.9 50.6h-2.2v2.2h2.3v-2.2zM11.7 12.2h-2.1v2.2h2.1v-2.2zM11.7 16.5h-2.1v2.1h2.1v-2zM13.9 14.4h-2.2v2.1h2.3v-2.1zM9.6 14.4h-2.1v2.1h2.1v-2.1z"></path>
<path fill="#2e2f42" style="fill: var(--color1, #2e2f42)" d="M49.4 28.3c-0.541-0.737-1.35-1.251-2.28-1.397l-0.020-0.003c-1-0.1-2 0.1-2.7 0.7l-2.5 2-3.8 2.8-2.7-1.1c4.783-2.266 8.033-7.054 8.033-12.601 0-7.618-6.128-13.805-13.724-13.899l-0.009-0c-7.653 0.104-13.816 6.331-13.816 13.999 0 2.742 0.788 5.3 2.15 7.459l-0.034-0.058h-5.6c-0.045-0.007-0.097-0.011-0.15-0.011s-0.105 0.004-0.156 0.012l0.006-0.001h-0.1l-6.5 3.2-3.8 1.8-0.1 0.1c-0.818 0.665-1.335 1.671-1.335 2.799 0 1.988 1.612 3.6 3.6 3.6 0.519 0 1.013-0.11 1.458-0.308l-0.023 0.009 2.7-1.4 4.6-2.3h2.7l-10.9 10.7-2.7 2.7c-0.607 0.599-0.983 1.431-0.983 2.35s0.376 1.751 0.983 2.35l0 0c0.599 0.607 1.431 0.983 2.35 0.983s1.751-0.376 2.35-0.983l0-0 2.7-2.6 3.4-2.6 1.8 1.8-6.2 6.2c-0.607 0.599-0.983 1.431-0.983 2.35s0.376 1.751 0.983 2.35l0 0c0.603 0.638 1.455 1.035 2.4 1.035s1.797-0.397 2.399-1.033l0.001-0.002 2.6-2.7 6.3-6.3 10.5-11.3 7 1c0.018 0.001 0.039 0.002 0.060 0.002 0.16 0 0.311-0.038 0.445-0.104l-0.006 0.003 0.2-0.1 6.4-4.3h0.2l2.4-2.5c0.673-0.655 1.090-1.569 1.090-2.581 0-0.797-0.259-1.533-0.697-2.129l0.007 0.010zM4.3 35.5c-0.4 0.2-0.8 0.3-1.2 0.1-0.588-0.175-1.010-0.71-1.010-1.344 0-0.478 0.239-0.9 0.605-1.153l0.005-0.003 2.6-1.1 0.7 1.8 0.2 0.8-2 1zM11.3 31.9l-3.1 1.6-0.6-1.5-0.3-1 4-2v2.9zM41.5 18.6c0 1.9-0.5 3.6-1.2 5.2l-8.4-3.8c0-1.2-0.7-2.2-1.6-2.8l3-9.7c4.7 1.5 8.2 6 8.2 11.1zM17.9 18.6c0.059-6.472 5.319-11.696 11.8-11.696 0.529 0 1.050 0.035 1.56 0.102l-0.060-0.006-3 9.5c-2 0-3.8 1.7-3.8 3.7-0.005 0.073-0.008 0.157-0.008 0.242 0 2.043 1.657 3.7 3.7 3.7 1.439 0 2.686-0.822 3.298-2.021l0.010-0.021 7.7 3.5c-2.177 2.849-5.577 4.668-9.401 4.668-6.471 0-11.725-5.208-11.799-11.661l-0-0.007zM29.8 20.2c0 1-0.7 1.6-1.6 1.6-1 0-1.6-0.7-1.6-1.6 0-0.8 0.7-1.6 1.6-1.6s1.6 0.8 1.6 1.6zM4.9 50.2c-0.4 0.6-1.2 0.6-1.7 0-0.19-0.211-0.306-0.492-0.306-0.8s0.116-0.589 0.307-0.801l-0.001 0.001 2-2 1.6 1.8-1.8 1.9zM11.4 57.8c-0.5 0.4-1.3 0.4-1.8 0-0.218-0.217-0.353-0.518-0.353-0.85s0.135-0.633 0.353-0.85l2-2 0.8 0.9 0.9 0.8-2 2zM18.4 50.8l-3.6 3.5-0.8-0.8-1-0.9 3.6-3.5 0.2-0.2v-0.1l0.1-0.3v-0.5c-0.051-0.116-0.118-0.215-0.2-0.3l-3.3-3.3h-0.1l-0.2-0.2h-1v0.1l-3.7 2.7-1.8-1.8 4.8-4.8 8.7 8.6-1.9 1.8zM32 36.8h-0.1c-0.043-0.007-0.093-0.010-0.143-0.010-0.167 0-0.324 0.041-0.462 0.113l0.006-0.003-0.2 0.2-9.5 10.3-8.6-8.4 5.6-5.6c0.39-0.147 0.662-0.517 0.662-0.95 0-0.559-0.453-1.012-1.012-1.012-0.126 0-0.246 0.023-0.357 0.065l0.007-0.002h-4.5v-3.1h6.3c2.53 2.61 6.068 4.229 9.985 4.229 0.889 0 1.759-0.084 2.602-0.243l-0.087 0.014 0.3 0.1 4.8 2 0.3 1.5 0.4 1.7-6-0.8zM40 37.1l-0.6-3 3-2.2 0.7 1 1.1 1.5-4.2 2.6zM47.5 31.5l-1.5 1.5-2-2.4 1.7-1.3c0.3-0.2 0.7-0.3 1-0.3 0.745 0.035 1.336 0.648 1.336 1.398 0 0.446-0.208 0.843-0.533 1.099l-0.003 0.002z"></path>
<path fill="#2e2f42" style="fill: var(--color1, #2e2f42)" d="M27.2 37l-4.3-4.2c-0.184-0.208-0.452-0.339-0.75-0.339s-0.566 0.13-0.749 0.337l-0.001 0.001-4.3 4.3c-0.208 0.184-0.339 0.452-0.339 0.75s0.131 0.566 0.337 0.749l0.001 0.001 4.3 4.3c0.184 0.208 0.452 0.339 0.75 0.339s0.566-0.13 0.749-0.337l0.001-0.001 4.3-4.3c0.208-0.184 0.339-0.452 0.339-0.75s-0.131-0.566-0.337-0.749l-0.001-0.001zM22.2 40.6l-2.8-2.8 2.8-2.7 2.7 2.7-2.7 2.8zM34.3 10.1l-0.5 2.1c0.2 0 3.5 1 3.5 4.3h2.1c0-4-3.3-6-5-6.4zM39.4 18.6h-2.1v2.2h2.1v-2.2z"></path>
</symbol>
<symbol id="icon-instagram" viewBox="0 0 16 16">
<path fill="#f4f4fd" style="fill: var(--color1, #f4f4fd)" d="M15.984 4.704c-0.037-0.85-0.175-1.435-0.372-1.941-0.203-0.538-0.516-1.019-0.925-1.419-0.4-0.406-0.885-0.722-1.416-0.922-0.509-0.197-1.091-0.334-1.941-0.372-0.857-0.041-1.128-0.050-3.301-0.050s-2.444 0.009-3.298 0.047c-0.85 0.037-1.435 0.175-1.941 0.372-0.538 0.203-1.019 0.516-1.419 0.925-0.406 0.4-0.722 0.885-0.922 1.416-0.197 0.51-0.334 1.091-0.372 1.941-0.041 0.856-0.050 1.128-0.050 3.301s0.009 2.444 0.047 3.298c0.037 0.85 0.175 1.435 0.372 1.941 0.203 0.538 0.519 1.019 0.925 1.419 0.4 0.406 0.885 0.722 1.416 0.922 0.51 0.197 1.091 0.335 1.941 0.372 0.853 0.038 1.125 0.047 3.298 0.047s2.444-0.009 3.298-0.047c0.85-0.037 1.435-0.175 1.941-0.372 1.075-0.416 1.925-1.266 2.341-2.341 0.197-0.509 0.334-1.091 0.372-1.941 0.038-0.853 0.047-1.125 0.047-3.298s-0.003-2.444-0.041-3.298zM14.543 11.236c-0.034 0.781-0.166 1.203-0.275 1.485-0.269 0.697-0.822 1.25-1.519 1.519-0.281 0.109-0.706 0.241-1.485 0.275-0.844 0.038-1.097 0.047-3.232 0.047s-2.391-0.009-3.232-0.047c-0.781-0.034-1.203-0.166-1.485-0.275-0.347-0.128-0.663-0.331-0.919-0.597-0.266-0.259-0.469-0.572-0.597-0.919-0.109-0.281-0.241-0.706-0.275-1.485-0.038-0.844-0.047-1.097-0.047-3.232s0.009-2.391 0.047-3.232c0.034-0.781 0.166-1.203 0.275-1.485 0.128-0.347 0.331-0.663 0.6-0.919 0.259-0.266 0.572-0.469 0.919-0.597 0.281-0.109 0.706-0.241 1.485-0.275 0.844-0.037 1.097-0.047 3.232-0.047 2.138 0 2.391 0.009 3.232 0.047 0.781 0.034 1.203 0.166 1.485 0.275 0.347 0.128 0.663 0.331 0.919 0.597 0.266 0.259 0.469 0.572 0.597 0.919 0.109 0.281 0.241 0.706 0.275 1.485 0.037 0.844 0.047 1.097 0.047 3.232s-0.009 2.385-0.047 3.229z"></path>
<path fill="#f4f4fd" style="fill: var(--color1, #f4f4fd)" d="M8.030 3.891c-2.269 0-4.11 1.841-4.11 4.11s1.841 4.11 4.11 4.11c2.269 0 4.11-1.841 4.11-4.11s-1.841-4.11-4.11-4.11zM8.030 10.668c-1.472 0-2.666-1.194-2.666-2.666s1.194-2.666 2.666-2.666c1.472 0 2.666 1.194 2.666 2.666s-1.194 2.666-2.666 2.666z"></path>
<path fill="#f4f4fd" style="fill: var(--color1, #f4f4fd)" d="M13.262 3.729c0 0.53-0.43 0.96-0.96 0.96s-0.96-0.43-0.96-0.96c0-0.53 0.43-0.96 0.96-0.96s0.96 0.43 0.96 0.96z"></path>
</symbol>
<symbol id="icon-twitter" viewBox="0 0 16 16">
<path fill="#f4f4fd" style="fill: var(--color1, #f4f4fd)" d="M16 3l-2 1 2-2-3 1c-0.544-0.552-1.3-0.894-2.136-0.894-1.657 0-3 1.343-3 3 0 0.319 0.050 0.626 0.142 0.915l-0.006-0.021-7-4c-0.243 0.423-0.386 0.931-0.386 1.471 0 1.058 0.547 1.987 1.374 2.521l0.012 0.007h-1c0 2 1 3 2 3-0.15 0.027-0.323 0.042-0.5 0.042s-0.35-0.015-0.518-0.045l0.018 0.003c0 2 1 3 3 3-1.068 0.694-2.375 1.107-3.779 1.107-0.432 0-0.854-0.039-1.264-0.114l0.043 0.006 5 1c4.971 0 9-4.029 9-9v0l2-2z"></path>
</symbol>
<symbol id="icon-facebook" viewBox="0 0 16 16">
<path fill="#f4f4fd" style="fill: var(--color1, #f4f4fd)" d="M11 3h1v-3h-2c-2 0-4 1-4 4v2h-2v3h2v7h3v-7h3v-3h-3v-2l2-1z"></path>
</symbol>
<symbol id="icon-linkedin" viewBox="0 0 16 16">
<path fill="#f4f4fd" style="fill: var(--color1, #f4f4fd)" d="M16 16v-5.9c0-2.8-0.6-5-4-5-1.6 0-2.7 0.8-3.1 1.7v-1.5h-3.3v10.7h3.4v-5.3c0-1.4 0.2-2.7 2-2.7 1.7 0 1.7 1.6 1.7 2.8v5.2h3.3zM0.3 5.3h3.3v10.7h-3.3v-10.7zM2 0c-1.2 0-2 0.9-2 2 0 1 0.9 1.9 2 1.9 1 0 1.8-1 1.8-2s-0.8-1.9-1.8-1.9z"></path>
</symbol>
<symbol id="icon-logo1" viewBox="0 0 59 32">
<path d="M21.714 4l4 4h-7.429v18.286h19.429v-6.857l4 3.429v-18.857h-20zM37.714 18.857l-11.429-10.857h11.429v10.857zM34.286 23.429h-13.143v-12h1.143v11.429h12v0.571zM24 29.714l-0.571-1.143h-0.571l0.571 1.714v0.571h0.571v-0.571l0.571-1.714-0.571 1.143zM25.714 28.571l0.571 2.286-0.571-0.571h-0.571v0.571h-0.571l0.571-2.286h0.571zM25.143 30.286h0.571v-1.143l-0.571 1.143zM27.429 29.714v-0.571l0.571-0.571h0.571c0.048 0.082 0.077 0.181 0.077 0.286s-0.028 0.204-0.078 0.288l0.001-0.003v0.571h-0.571l0.571 0.571c0.048-0.082 0.077-0.181 0.077-0.286s-0.028-0.204-0.078-0.288l0.001 0.003h0.571v0.571c-0.086 0.023-0.184 0.036-0.286 0.036s-0.2-0.013-0.294-0.038l0.008 0.002 0.571 0.571h-0.571c-0.164 0.096-0.361 0.153-0.571 0.153s-0.407-0.057-0.577-0.156l0.005 0.003v-1.143zM28 29.714v0.571c-0.082-0.048-0.181-0.077-0.286-0.077s-0.204 0.028-0.288 0.078l0.003-0.001h0.571v0.571c0.316 0 0.571-0.256 0.571-0.571v0l-0.571-0.571zM28 29.714v0zM31.429 30.286h-1.143v-1.143h0.571l0.571 0.571v-0.571l-0.571-0.571h-0.571v0.571h-0.571v1.143l0.571 0.571c0.082 0.048 0.181 0.077 0.286 0.077s0.204-0.028 0.288-0.078l-0.003 0.001 0.571-0.571zM33.714 29.714l-0.571-0.571v-0.571h-1.143v2.286c0.082 0.048 0.181 0.077 0.286 0.077s0.204-0.028 0.288-0.078l-0.003 0.001h0.571v-0.571l0.571-0.571zM33.143 29.714v0.571h-1.143v-1.143h1.143v0.571z"></path>
</symbol>
<symbol id="icon-logo2" viewBox="0 0 59 32">
<path d="M28.571 3.429h0.571l1.714 0.571v-1.714l0.117 0.030c-0.934-0.281-1.903-0.482-2.974-0.602h0.001c-0.007 0-0.013 0-0.020 0-3.148 0-6.098 0.849-8.552 2.286v16.571l-0.090 0.047c2.231-1.275 4.757-2.093 7.518-2.333h1.143v-1.714l-0.036 0.001c-2.236 0.074-4.387 0.487-6.25 1.142h-0.571v-12.571c1.714-1.143 4-1.714 6.286-1.714l-0.015 0c0.1-0.002 0.2-0.003 0.301-0.003s0.201 0.001 0.286 0.003h0.571zM31.429 5.143h1.143c3.154-0.024 6.105-0.869 8.658-2.331l-0.087 0.046v16c-2.346 1.284-5.139 2.039-8.108 2.039-1.175 0-2.322-0.118-3.43-0.343l0.11 0.019v-16c0.465 0.2 1.036 0.395 1.623 0.551l0.092 0.021zM39.429 5.143h-0.571l-1.143 0.571c-1.464 0.395-3.145 0.622-4.878 0.622-0.495 0-0.986-0.019-1.472-0.055l0.065 0.004h-0.571v13.143h1.714c2.51-0.036 4.865-0.666 6.942-1.755l-0.085 0.040v-12.571z"></path>
<path d="M20.571 25.714c-0.082-0.048-0.181-0.077-0.286-0.077s-0.204 0.028-0.288 0.078l0.003-0.001h-0.571c-0.255 0.117-0.455 0.317-0.569 0.564l-0.003 0.007v2.857h0.571v0.571h0.571c0.349-0.2 0.581-0.571 0.581-0.995 0-0.052-0.003-0.103-0.010-0.154l0.001 0.006h-0.571v0.571c-0.082 0.048-0.181 0.077-0.286 0.077s-0.204-0.028-0.288-0.078l0.003 0.001v-2.857c0.082-0.048 0.181-0.077 0.286-0.077s0.204 0.028 0.288 0.078l-0.003-0.001v0.571h0.571v-0.571c0.023-0.086 0.036-0.184 0.036-0.286s-0.013-0.2-0.038-0.294l0.002 0.008zM24 25.714c-0.164-0.096-0.361-0.153-0.571-0.153s-0.407 0.057-0.577 0.156l0.005-0.003h-0.571v3.429l0.571 0.571c0.086 0.023 0.184 0.036 0.286 0.036s0.2-0.013 0.294-0.038l-0.008 0.002 0.571-0.571c0.023-0.086 0.036-0.184 0.036-0.286s-0.013-0.2-0.038-0.294l0.002 0.008v-2.857zM23.429 28.571c0.048 0.082 0.077 0.181 0.077 0.286s-0.028 0.204-0.078 0.288l0.001-0.003c-0.082 0.048-0.181 0.077-0.286 0.077s-0.204-0.028-0.288-0.078l0.003 0.001c-0.048-0.082-0.077-0.181-0.077-0.286s0.028-0.204 0.078-0.288l-0.001 0.003v-2.286c0.082-0.048 0.181-0.077 0.286-0.077s0.204 0.028 0.288 0.078l-0.003-0.001v2.286zM28 29.714v-4h-0.571l-0.571 1.714-0.571-1.714h-0.571v4h0.571v-2.286l0.571 1.143 0.571-1.143v2.286h0.571zM31.429 25.714h-1.714v4h0.571v-1.714h1.143v-0.571c0.037-0.172 0.058-0.369 0.058-0.571s-0.021-0.4-0.061-0.59l0.003 0.019v-0.571zM30.857 26.857v0.571h-0.571v-1.143h0.571v0.571zM34.286 25.714h-0.571l-1.143 4h0.571l0.571-1.143h0.571v1.143h0.571l-0.571-4zM33.714 28v-1.143l0.571 1.143h-0.571zM37.714 28l-1.143-2.286v1.714h0.571l0.571 2.286h0.571v-4h-0.571v2.286zM41.143 25.714l-0.571 1.714-0.571-1.714h-0.571l1.143 2.286v1.714h0.571v-1.714l0.571-2.286h-0.571zM18.857 30.857v0.571h0.571v-1.143h-0.571v0.571zM21.143 30.286l-0.571 1.143h1.143l-0.571-1.143zM23.429 30.857v0.571l-0.571-0.571h1.143l-0.571-0.571-0.571 0.571v0.571c0.082 0.048 0.181 0.077 0.286 0.077s0.204-0.028 0.288-0.078l-0.003 0.001h0.571v-0.571h-0.571zM25.714 30.286v0zM27.429 30.286v0zM29.714 30.857l-0.571-0.571v0.571l0.571 0.571v-0.571zM31.429 30.857v-0.571h-0.571v1.143h0.571v-0.571zM35.429 30.857h-0.571v0h0.571v0zM37.143 30.857h0.571v-0.571h-0.571v0.571zM39.429 30.857v-0.571h-0.571v0.571h0.571v0zM39.429 30.857v0zM41.143 30.857h0.571v-0.571h-0.571v0.571z"></path>
</symbol>
<symbol id="icon-logo3" viewBox="0 0 59 32">
<path d="M21.143 28l-0.571 0.571h-0.571l-0.571-0.571c-0.096-0.164-0.153-0.361-0.153-0.571s0.057-0.407 0.156-0.577l-0.003 0.005 0.571-0.571c0.17-0.062 0.367-0.098 0.571-0.098s0.401 0.036 0.583 0.102l-0.012-0.004v0.571h-1.143l-0.571 0.571v0.571c0.082 0.048 0.181 0.077 0.286 0.077s0.204-0.028 0.288-0.078l-0.003 0.001 0.571 0.571c0.316 0 0.571-0.256 0.571-0.571v0zM24.571 27.429v0.571l-0.571 0.571h-1.143v-0.571h-0.571v-1.143h0.571v-0.571h1.143l0.571 0.571c0.023 0.086 0.036 0.184 0.036 0.286s-0.013 0.2-0.038 0.294l0.002-0.008zM24.571 27.429c0-0.316-0.256-0.571-0.571-0.571v0h-1.143v1.143c0.082 0.048 0.181 0.077 0.286 0.077s0.204-0.028 0.288-0.078l-0.003 0.001h1.143v-0.571zM27.429 28l0.571-1.714h0.571v2.286h-0.571v-1.714l-0.571 1.143h-0.571l-0.571-1.143v1.714h-0.571v-2.286h0.571l0.571 1.714h0.571zM30.286 28v0.571h-0.571v-2.286h1.143l0.571 0.571v0.571l-0.571 0.571h-0.571zM30.286 27.429h0.571l0.571-0.571h-1.143v0.571zM34.286 28.571l-0.571-0.571h-1.143v0.571h-0.571l1.143-2.286h0.571l0.571 2.286zM33.143 28h0.571l-0.571-1.143v1.143zM36 26.286l1.143 1.714v-1.714h0.571v2.286h-0.571l-1.143-1.714v1.714h-0.571v-2.286h0.571zM40 28v0.571h-0.571v-0.571l-0.571-1.714v0.571l0.571 0.571h0.571l0.571-1.143-0.571 1.714zM26.857 22.857h0.571c2.286-0.571 4-1.714 5.143-3.429s1.714-4 1.714-5.714l-2.286-2.286c0.571 2.286 0.571 4.571-0.571 6.286-1.143 2.286-2.286 4-4.571 5.143z"></path>
<path d="M26.286 22.857c2.286-1.143 4-2.857 4.571-5.143 1.143-2.286 1.143-4.571 0.571-6.286l-3.429-2.857c1.010 1.721 1.607 3.79 1.607 5.999 0 3.216-1.265 6.137-3.325 8.292l0.004-0.005zM37.714 16c-0.571 2.286-2.286 4-4 5.714l2.286-1.143 2.857-3.429-1.143-1.143z"></path>
<path d="M37.143 15.429l-2.286-1.143-1.714 5.143-4.571 4 1.143-0.571c1.714-0.571 3.429-1.143 4.571-2.857 1.714-1.143 2.286-2.857 2.857-4.571zM26.286 6.857l-2.286-1.714-5.143 3.429-1.714 5.143c0 2.286 0.571 4 2.286 5.714s3.429 2.857 6.286 3.429c1.714-2.286 2.857-5.143 3.429-7.429 0-2.857-1.143-5.714-2.857-8.571zM42.286 15.429c0-2.286-1.143-5.143-3.429-6.857-1.714-1.714-4.571-2.286-7.429-2.286l-4 0.571 14.286 12 0.571-3.429z"></path>
</symbol>
<symbol id="icon-logo4" viewBox="0 0 59 32">
<path d="M13.714 12.571c-1.143 0-2.286 0.571-2.286 1.714 0 1.714 1.143 2.286 2.286 2.286s2.286-0.571 2.286-2.286c0-1.143-1.143-1.714-2.286-1.714zM32 11.429c0-1.714-0.571-3.429-2.286-4.571-1.143-1.143-2.857-1.714-5.143-1.714-1.714 0-3.429 0.571-4.571 1.714-1.714 1.143-2.286 2.857-2.286 4.571v9.714s14.286-1.714 14.286-9.714zM6.286 24l1.714 3.429 3.429 1.143 3.429-1.143 1.143-3.429v-6.286s-9.714 0.571-9.714 6.286zM11.429 25.143h-1.143v-0.571l-0.571-0.571 1.143-1.143h1.143l0.571 0.571c0.121 0.179 0.193 0.399 0.193 0.636 0 0.496-0.316 0.918-0.757 1.076l-0.008 0.003h-0.571zM20.571 23.429v2.286h-0.571v-2.286h0.571zM21.143 24v0.571h-1.143v-0.571h1.143zM21.714 23.429v0zM24 24.571l-1.143 1.143h-0.571l-0.571-0.571v-1.714h0.571l0.571-0.571v0.571h0.571v0.571l0.571 0.571zM23.429 24.571v-0.571h-0.571c0.048-0.082 0.077-0.181 0.077-0.286s-0.028-0.204-0.078-0.288l0.001 0.003h-0.571v1.714h0.571l0.571-0.571zM25.143 25.143v-0.571h-0.571v-0.571h-0.571v-0.571h0.571c0.164-0.096 0.361-0.153 0.571-0.153s0.407 0.057 0.577 0.156l-0.005-0.003v0.571h-0.571v-0.571h-0.571v0.571h0.571v0.571h0.571c0.048 0.082 0.077 0.181 0.077 0.286s-0.028 0.204-0.078 0.288l0.001-0.003v0.571h-0.571c-0.086 0.023-0.184 0.036-0.286 0.036s-0.2-0.013-0.294-0.038l0.008 0.002-0.571-0.571v-0.571h0.571v0.571h0.571zM27.429 23.429v2.286h-0.571v-2.286h0.571zM28 23.429v0zM29.714 25.143v0.571h-1.143v-0.571h1.143zM28.571 23.429v0zM29.714 24v0.571h-1.143v-0.571h1.143zM29.714 23.429v0zM30.286 23.429h1.714v1.143h-0.571v-1.143h-0.571v2.286h-0.571v-2.286zM31.429 25.714l-0.571-1.143h0.571l0.571 1.143h-0.571zM34.286 24.571v0-0.571h0.571l-0.571-0.571h-0.571v2.286h-0.571v-2.286h1.714c0.316 0 0.571 0.256 0.571 0.571v0l-0.571 0.571h-0.571zM37.143 25.143v0.571h-1.143v-0.571h1.143zM36 23.429v2.286h-0.571v-2.286h0.571zM37.143 24v0.571h-1.143v-0.571h1.143zM37.143 23.429v0zM38.286 23.429v0zM39.429 23.429v0zM41.143 25.143v0.571h-1.143v-0.571h1.143zM40 23.429v2.286h-0.571v-2.286h0.571zM41.143 24v0.571h-1.143v-0.571h1.143zM41.143 23.429v0zM41.714 23.429h1.714v0.571l-0.571 0.571h-0.571l0.571-0.571v-0.571h-0.571v2.286h-0.571v-2.286zM42.857 25.714l-0.571-1.143h0.571l0.571 1.143h-0.571zM45.143 25.143v-0.571h-1.143v-0.571h-0.571l0.571-0.571c0.164-0.096 0.361-0.153 0.571-0.153s0.407 0.057 0.577 0.156l-0.005-0.003 0.571 0.571h-0.571v-0.571h-1.143v0.571h0.571l0.571 0.571c0.316 0 0.571 0.256 0.571 0.571v0l-0.571 0.571c-0.164 0.096-0.361 0.153-0.571 0.153s-0.407-0.057-0.577-0.156l0.005 0.003v-0.571l-0.571-0.571h0.571v0.571h1.143z"></path>
</symbol>
<symbol id="icon-logo5" viewBox="0 0 59 32">
<path d="M15.429 25.143v1.714h-2.857v-3.429h2.286l0.571 0.571v0.571l-0.571 0.571h0.571zM13.143 24.571h1.714v-0.571h-1.714v0.571zM14.286 26.286h0.571v-0.571h-0.571v-0.571h-1.143v1.143h1.143zM18.857 26.857l-1.143-1.143h-0.571v1.143h-0.571v-3.429h2.286l0.571 1.143v0.571l-1.143 0.571 1.143 1.143h-0.571zM17.143 25.143h1.143l0.571-0.571v-0.571h-1.714v1.143zM22.857 26.286h-1.714v0.571h-1.143l1.714-3.429h1.143l1.143 3.429h-0.571l-0.571-0.571zM22.857 25.714l-0.571-1.714-0.571 1.714h1.143zM28.571 26.857h-1.143l-1.714-2.286v2.286h-0.571v-3.429h0.571l1.714 2.286v-2.286h1.143v3.429zM32.571 26.286l-0.571 0.571h-2.286v-3.429h2.286l0.571 0.571c0.271 0.302 0.437 0.703 0.437 1.143s-0.166 0.841-0.438 1.144l0.001-0.002zM32 25.714v-1.714h-1.714v2.286h0.571l1.143-0.571zM23.429 4s10.286 3.429 9.714 8v8.571s-9.714-3.429-9.714-8.571v-8zM42.286 18.857c1.714-1.143 4-2.286 6.286-2.286v-2.857c-2.857 1.143-5.143 2.857-6.286 5.143z"></path>
<path d="M41.143 19.429c1.714-2.857 4-5.143 7.429-6.286v-7.429s-14.286 5.143-13.714 12v12l1.143-0.571v-1.143c0.571-3.429 2.286-6.286 5.143-8.571z"></path>
<path d="M39.429 24l0.571-2.857c-1.772 1.926-2.858 4.506-2.858 7.341 0 0.031 0 0.062 0 0.093l-0-0.005 2.857-1.143-0.571-3.429zM40 24l0.571 2.857c4-1.714 8-5.143 8-9.143v-0.571c-2.857 0.571-5.143 1.714-7.429 3.429l-1.143 3.429z"></path>
</symbol>
<symbol id="icon-logo6" viewBox="0 0 59 32">
<path d="M30.857 15.429l-0.571-1.143v-1.143l0.571-1.143 1.143-0.571h1.143v1.714h-1.143v-1.143h-0.571v3.429h0.571v-1.143h1.143v1.714h-1.143l-1.143-0.571zM34.286 15.429v-3.429l1.143-0.571 1.714 0.571v3.429l-1.714 0.571-1.143-0.571zM36 15.429v-3.429h-0.571l-0.571 0.571v2.286l0.571 0.571c0.082 0.048 0.181 0.077 0.286 0.077s0.204-0.028 0.288-0.078l-0.003 0.001zM38.286 11.429h1.143l0.571 3.429 1.143-3.429h0.571v4.571h-0.571v-3.429l-0.571 3.429h-0.571l-1.143-3.429v3.429h-0.571v-4.571zM42.857 11.429h1.714c1.143 0 1.714 0.571 1.714 1.143 0 1.143-0.571 1.143-1.714 1.143h-0.571v2.286h-1.143v-4.571zM44.571 13.143h0.571v-1.143h-1.143v1.143h0.571zM47.429 11.429h1.143l1.143 4.571h-1.143v-1.143h-1.143v1.143h-1.143l1.143-4.571zM48.571 14.286l-0.571-1.714-0.571 1.714h1.143zM50.286 11.429h0.571l1.714 2.857v-2.857h0.571v4.571h-0.571l-1.143-2.857v2.857h-1.143v-4.571zM54.857 14.286l-0.571-2.857h0.571l0.571 1.714 0.571-1.714h1.143l-1.143 2.857v1.714h-1.143v-1.714zM32 18.286h-0.571v1.714h-0.571v-1.714h1.143zM34.857 20h-0.571l-0.571-0.571h-0.571l-0.571 0.571h-0.571l1.143-1.714h0.571l1.143 1.714zM33.143 19.429h0.571v-1.143h-0.571v1.143zM36 20h1.143v0c-0.086 0.015-0.185 0.024-0.286 0.024s-0.2-0.009-0.296-0.025l0.010 0.001h-1.143l-0.571-0.571v-0.571l0.571-0.571h0.571c0.086-0.015 0.185-0.024 0.286-0.024s0.2 0.009 0.296 0.025l-0.010-0.001c0.086-0.023 0.184-0.036 0.286-0.036s0.2 0.013 0.294 0.038l-0.008-0.002h-0.571c-0.086-0.023-0.184-0.036-0.286-0.036s-0.2 0.013-0.294 0.038l0.008-0.002h-0.571v1.714c0.082 0.048 0.181 0.077 0.286 0.077s0.204-0.028 0.288-0.078l-0.003 0.001zM39.429 20h-0.571v-1.714h0.571v1.714zM41.714 20h-0.571v-1.714h0.571v1.714zM42.857 18.286l1.143 1.143v-1.143h0.571v1.714h-0.571l-1.143-1.714v1.714h-0.571v-1.714h0.571zM46.857 18.286h-1.143v0.571h1.143v0.571h-1.143v0.571-1.714h1.143zM12 5.143l14.857 3.429v12.571l-14.857-3.429v-12.571zM11.429 4v14.286l16.571 4v-14.286l-16.571-4z"></path>
<path d="M20 29.143l-16.571-4v-14.857l16.571 4.571v14.286z"></path>
<path d="M11.429 4.571l14.857 4-6.286 5.143-14.857-3.429 6.286-5.714zM11.429 4l-8 6.286 16.571 4.571 8-6.857-16.571-4zM21.143 28l6.857-5.714-6.857-1.714v7.429z"></path>
</symbol>

<symbol id="icon-close" viewBox="0 0 24 24">
<path d="M24 3l-3-3-9 9-9-9-3 3 9 9-9 9 3 3 9-9 9 9 3-3-9-9 9-9z"></path>
</symbol>
<symbol id="icon-person" viewBox="0 0 24 24">
<path d="M12 12c2.209 0 4-1.791 4-4s-1.791-4-4-4v0c-2.209 0-4 1.791-4 4s1.791 4 4 4v0zM12 14.667c-2.667 0-8 1.333-8 4l1.333 1.333h13.333l1.333-1.333c0-2.667-5.333-4-8-4z"></path>
</symbol>
<symbol id="icon-phone" viewBox="0 0 18 24">
<path d="M15 14h-3l-2 1-4-4 1-2v-3l-1-1h-2l-1 1c0 7 5 12 12 12l1-1v-2l-1-1z"></path>
</symbol>
<symbol id="icon-email" viewBox="0 0 18 24">
<path d="M15 6h-12l-1 2v9l1 1h12l2-1v-9l-2-2zM15 9l-6 4-6-4 1-1 5 3 5-3c0-0.552 0.448-1 1-1s1 0.448 1 1c0 0.552-0.448 1-1 1v0z"></path>
</symbol>
<symbol id="icon-" viewBox="0 0 13 10">
<path fill="#f4f4fd" style="fill: var(--color1, #f4f4fd)" d="M10 0c0.235-0.462 0.706-0.773 1.25-0.773 0.772 0 1.398 0.626 1.398 1.398 0 0.228-0.055 0.443-0.151 0.633l0.004-0.008v1.25l-6.25 7.5c-0.179 0.105-0.395 0.167-0.625 0.167s-0.446-0.062-0.631-0.171l0.006 0.003-5-5c0-0.69 0.56-1.25 1.25-1.25v0h1.25l2.5 3.75 5-7.5z"></path>
</symbol>
<symbol id="icon-frame" viewBox="0 0 24 24">
<path fill="#fff" style="fill: var(--color1, #fff)" d="M24 2l-24 11 8 3 12-10-9 10v6l4-4 5 2 4-18z"></path>
</symbol>
<symbol id="icon-vecto" viewBox="0 0 30 24">
<path fill="#f4f4fd" style="fill: var(--color1, #f4f4fd)" d="M25.337 0.765c0.518-0.496 1.208-0.771 1.924-0.765s1.401 0.29 1.912 0.794c0.511 0.504 0.807 1.188 0.826 1.907s-0.241 1.418-0.725 1.949l-14.684 18.463c-0.253 0.273-0.557 0.493-0.896 0.645s-0.705 0.234-1.076 0.241c-0.371 0.007-0.74-0.061-1.084-0.201s-0.657-0.348-0.919-0.611l-9.738-9.79c-0.271-0.254-0.489-0.56-0.64-0.901s-0.232-0.708-0.239-1.080 0.062-0.743 0.2-1.088c0.139-0.346 0.345-0.659 0.608-0.923s0.574-0.471 0.918-0.611 0.712-0.208 1.082-0.202c0.371 0.007 0.736 0.088 1.075 0.24s0.643 0.37 0.896 0.643l7.706 7.744 12.781-16.372c0.023-0.028 0.048-0.056 0.074-0.081h-0.004z"></path>
</symbol>
<symbol id="icon-burger" viewBox="0 0 35 24">
<path stroke-linejoin="round" stroke-linecap="round" stroke-miterlimit="4" stroke-width="3.2727" d="M1.091 21.818h32.727M1.091 12h32.727M1.091 1.091h32.727"></path>
</symbol>
</defs>
</svg>
